<?xml version="1.0" encoding="iso-8859-1"?>
<!-- Generator: Adobe Illustrator 21.0.0, SVG Export Plug-In . SVG Version: 6.00 Build 0)  -->
<svg version="1.1" id="Capa_1" xmlns="http://www.w3.org/2000/svg" xmlns:xlink="http://www.w3.org/1999/xlink" x="0px" y="0px"
	 viewBox="0 0 512 512" style="enable-background:new 0 0 512 512;" xml:space="preserve">
<path style="fill:#F03049;" d="M256,262.187c-22.755,0-41.267-18.512-41.267-41.266v-12.986c-7.155-1.523-14.211-3.442-21.14-5.75
	l-1.604,10.741c-3.053,20.448-20.706,35.177-40.789,35.178c-2.019,0-4.06-0.148-6.116-0.455
	c-22.505-3.359-38.082-24.401-34.725-46.905l6.807-45.603C79.933,118.216,58.728,67.596,58.728,15c0-8.284,6.716-15,15-15h364.545
	c8.284,0,15,6.716,15,15c0,52.596-21.205,103.216-58.439,140.141l6.807,45.602c1.627,10.902-1.089,21.785-7.647,30.645
	c-6.558,8.859-16.174,14.634-27.075,16.261c-22.515,3.364-43.548-12.219-46.907-34.723l-1.603-10.741
	c-6.928,2.307-13.986,4.227-21.141,5.75v12.986C297.267,243.675,278.755,262.187,256,262.187z"/>
<path style="fill:#13496B;" d="M391.418,320.824H381.06v-88.012c0-8.284-6.716-15-15-15s-15,6.716-15,15v88.012H271V254.45
	c0-8.284-6.716-15-15-15s-15,6.716-15,15v66.374h-80.06v-88.012c0-8.284-6.716-15-15-15s-15,6.716-15,15v88.012h-10.358
	c-25.646,0-46.512,20.865-46.512,46.512v53.578c0,8.284,6.716,15,15,15s15-6.716,15-15v-53.578c0-9.104,7.407-16.512,16.512-16.512
	H241v74.564c0,8.284,6.716,15,15,15s15-6.716,15-15v-74.564h120.418c9.104,0,16.512,7.407,16.512,16.512v53.578
	c0,8.284,6.716,15,15,15s15-6.716,15-15v-53.578C437.93,341.689,417.064,320.824,391.418,320.824z"/>
<path style="fill:#FA5D0F;" d="M422.93,512c-27.181,0-49.293-22.112-49.293-49.293s22.112-49.293,49.293-49.293
	s49.293,22.112,49.293,49.293S450.11,512,422.93,512z M422.93,443.414c-10.638,0-19.293,8.655-19.293,19.293S412.292,482,422.93,482
	s19.293-8.655,19.293-19.293S433.567,443.414,422.93,443.414z"/>
<path style="fill:#368DCF;" d="M256,239.45c-8.284,0-15,6.716-15,15v66.374h-80.06v-88.012c0-8.284-6.716-15-15-15s-15,6.716-15,15
	v88.012h-10.358c-25.646,0-46.512,20.865-46.512,46.512v53.578c0,8.284,6.716,15,15,15s15-6.716,15-15v-53.578
	c0-9.104,7.407-16.512,16.512-16.512H241v74.564c0,8.284,6.716,15,15,15V239.45z"/>
<path style="fill:#FFA78F;" d="M256,262.187c-22.755,0-41.267-18.512-41.267-41.266v-12.986c-7.155-1.523-14.211-3.442-21.14-5.75
	l-1.604,10.741c-3.053,20.448-20.706,35.177-40.789,35.178c-2.019,0-4.06-0.148-6.116-0.455
	c-22.505-3.359-38.082-24.401-34.725-46.905l6.807-45.603C79.933,118.216,58.728,67.596,58.728,15c0-8.284,6.716-15,15-15h364.545
	c8.284,0,15,6.716,15,15c0,52.596-21.205,103.216-58.439,140.141l6.807,45.602c1.627,10.902-1.089,21.785-7.647,30.645
	c-6.558,8.859-16.174,14.634-27.075,16.261c-22.515,3.364-43.548-12.219-46.907-34.723l-1.603-10.741
	c-6.928,2.307-13.986,4.227-21.141,5.75v12.986C297.267,243.675,278.755,262.187,256,262.187z"/>
<path style="fill:#FFCEBF;" d="M256,0H73.728c-8.284,0-15,6.716-15,15c0,52.596,21.205,103.216,58.439,140.141l-6.807,45.603
	c-3.357,22.504,12.22,43.546,34.725,46.905c2.057,0.307,4.098,0.456,6.116,0.455c20.083-0.001,37.736-14.73,40.789-35.178
	l1.604-10.741c6.929,2.308,13.984,4.227,21.14,5.75v12.986c0,22.754,18.512,41.266,41.267,41.266L256,0L256,0z"/>
<path id="SVGCleanerId_0" style="fill:#FA5D0F;" d="M256,512c-27.181,0-49.293-22.112-49.293-49.293s22.112-49.293,49.293-49.293
	s49.293,22.112,49.293,49.293S283.181,512,256,512z M256,443.414c-10.638,0-19.293,8.655-19.293,19.293S245.362,482,256,482
	s19.293-8.655,19.293-19.293S266.638,443.414,256,443.414z"/>
<path id="SVGCleanerId_1" style="fill:#FA5D0F;" d="M89.07,512c-27.181,0-49.293-22.112-49.293-49.293s22.112-49.293,49.293-49.293
	s49.293,22.112,49.293,49.293S116.251,512,89.07,512z M89.07,443.414c-10.638,0-19.293,8.655-19.293,19.293S78.433,482,89.07,482
	c10.637,0,19.293-8.655,19.293-19.293S99.708,443.414,89.07,443.414z"/>
<g>
	<path id="SVGCleanerId_0_1_" style="fill:#FA5D0F;" d="M256,512c-27.181,0-49.293-22.112-49.293-49.293
		s22.112-49.293,49.293-49.293s49.293,22.112,49.293,49.293S283.181,512,256,512z M256,443.414
		c-10.638,0-19.293,8.655-19.293,19.293S245.362,482,256,482s19.293-8.655,19.293-19.293S266.638,443.414,256,443.414z"/>
</g>
<g>
	<path id="SVGCleanerId_1_1_" style="fill:#FA5D0F;" d="M89.07,512c-27.181,0-49.293-22.112-49.293-49.293
		s22.112-49.293,49.293-49.293s49.293,22.112,49.293,49.293S116.251,512,89.07,512z M89.07,443.414
		c-10.638,0-19.293,8.655-19.293,19.293S78.433,482,89.07,482c10.637,0,19.293-8.655,19.293-19.293S99.708,443.414,89.07,443.414z"
		/>
</g>
<g>
	<path style="fill:#FC9942;" d="M422.93,482c-10.638,0-19.293-8.655-19.293-19.293s8.655-19.293,19.293-19.293v-30
		c-27.181,0-49.293,22.112-49.293,49.293S395.749,512,422.93,512V482z"/>
	<path style="fill:#FC9942;" d="M256,482c-10.638,0-19.293-8.655-19.293-19.293s8.655-19.293,19.293-19.293v-30
		c-27.181,0-49.293,22.112-49.293,49.293S228.819,512,256,512V482z"/>
	<path style="fill:#FC9942;" d="M89.07,482c-10.638,0-19.293-8.655-19.293-19.293s8.655-19.293,19.293-19.293v-30
		c-27.181,0-49.293,22.112-49.293,49.293S61.89,512,89.07,512V482z"/>
</g>
<g>
</g>
<g>
</g>
<g>
</g>
<g>
</g>
<g>
</g>
<g>
</g>
<g>
</g>
<g>
</g>
<g>
</g>
<g>
</g>
<g>
</g>
<g>
</g>
<g>
</g>
<g>
</g>
<g>
</g>
</svg>
